<svg xmlns="http://www.w3.org/2000/svg" width="64" height="64" viewBox="0 0 24 24" fill="none">
  <path d="M12 2l8 4v6c0 5.2-3.3 9.6-8 10-4.7-.4-8-4.8-8-10V6l8-4z" stroke="rgba(56,189,248,1)" stroke-width="1.6" stroke-linejoin="round" fill="rgba(56,189,248,0.08)"/>
  <path d="M14 14.5a4 4 0 0 0-4 0" stroke="rgba(56,189,248,1)" stroke-width="2" stroke-linecap="round"/>
  <path d="M10 14.5V6a3 3 0 0 1 6 0v8.5" stroke="rgba(56,189,248,1)" stroke-width="2" stroke-linecap="round"/>
  <path d="M12 17.5a1 1 0 1 0 0-2 1 1 0 0 0 0 2Z" fill="rgba(56,189,248,1)"/>
  <path d="M9.1 11v-2a3 3 0 1 1 5.8 0v2" stroke="rgba(251,113,133,0.95)" stroke-width="2" stroke-linecap="round" stroke-linejoin="round"/>
  <rect x="8.2" y="11" width="7.6" height="8.6" rx="2" stroke="rgba(251,113,133,0.95)" stroke-width="2"/>
  <path d="M12 14.3v2.2" stroke="rgba(251,113,133,0.95)" stroke-width="2" stroke-linecap="round"/>
</svg>

